<!DOCTYPE svg PUBLIC "-//W3C//DTD SVG 1.1//EN" "http://www.w3.org/Graphics/SVG/1.1/DTD/svg11.dtd">
<!-- Uploaded to: SVG Repo, www.svgrepo.com, Transformed by: SVG Repo Mixer Tools -->
<svg width="800px" height="800px" viewBox="0 0 48 48" fill="none" xmlns="http://www.w3.org/2000/svg">
<g id="SVGRepo_bgCarrier" stroke-width="0"/>
<g id="SVGRepo_tracerCarrier" stroke-linecap="round" stroke-linejoin="round"/>
<g id="SVGRepo_iconCarrier"> <g id="help"> <g id="help_2"> <path id="Combined Shape" fill-rule="evenodd" clip-rule="evenodd" d="M44.0006 24.0002C44.0006 31.1617 40.2039 37.6662 34.1486 41.2376C33.6729 41.5182 33.0598 41.36 32.7793 40.8843C32.4987 40.4086 32.6569 39.7955 33.1326 39.5149C38.5842 36.2996 42.0006 30.4465 42.0006 24.0002C42.0006 14.0585 33.9423 6.00024 24.0006 6.00024C14.0589 6.00024 6.00061 14.0585 6.00061 24.0002C6.00061 32.1408 11.4496 39.2041 19.1933 41.3525C19.4778 41.4356 19.9645 41.5638 20.5489 41.692C20.7425 41.7344 20.9344 41.7739 21.1234 41.8098C21.666 41.913 22.0222 42.4365 21.919 42.979C21.8159 43.5216 21.2924 43.8778 20.7498 43.7746C20.5419 43.7351 20.3316 43.6919 20.1203 43.6455C19.4859 43.5063 18.9569 43.3671 18.6453 43.2759C10.0544 40.8926 4.00061 33.0453 4.00061 24.0002C4.00061 12.954 12.9543 4.00024 24.0006 4.00024C35.0469 4.00024 44.0006 12.954 44.0006 24.0002ZM23.0991 34.5388C23.0533 34.6327 22.9869 34.8215 22.9741 34.8879C22.8696 35.4302 22.3452 35.7851 21.8029 35.6806C21.2606 35.576 20.9057 35.0517 21.0103 34.5094C21.0586 34.2585 21.1827 33.9058 21.3018 33.6614C22.0281 32.1758 23.8177 31.5564 25.3052 32.2792C26.7939 33.0025 27.413 34.7949 26.6899 36.2832C26.3052 37.076 25.6018 37.6452 24.7663 37.8702C24.233 38.0139 23.6843 37.698 23.5406 37.1647C23.397 36.6315 23.7128 36.0827 24.2461 35.9391C24.5295 35.8627 24.7623 35.6743 24.8908 35.4096C25.1316 34.9139 24.926 34.3185 24.4312 34.0781C23.9365 33.8377 23.3411 34.0438 23.0991 34.5388ZM19 18.9934C19 16.233 21.239 13.9934 24 13.9934C26.761 13.9934 29 16.233 29 18.9934C29 21.749 26.7717 23.9835 24.0185 23.9934C24.0123 23.9933 24.0062 23.9932 24 23.9932C23.4477 23.9932 23 24.441 23 24.9932L23 24.9934L23 29.0032C23 29.5555 23.4477 30.0032 24 30.0032C24.5523 30.0032 25 29.5555 25 29.0032V25.9226C28.3925 25.4374 31 22.5202 31 18.9934C31 15.1285 27.8657 11.9934 24 11.9934C20.1344 11.9934 17 15.1285 17 18.9934C17 19.5457 17.4477 19.9934 18 19.9934C18.5523 19.9934 19 19.5457 19 18.9934ZM25 25.9226V24.9932C25 24.4471 24.5622 24.0033 24.0185 23.9934C24.0123 23.9934 24.0062 23.9934 24 23.9934C23.4477 23.9934 23 24.4412 23 24.9934C23 25.5457 23.4477 25.9934 24 25.9934C24.3395 25.9934 24.6734 25.9693 25 25.9226Z" fill="#646464"/> </g> </g> </g>
</svg>